<svg fill="none" height="17" viewBox="0 0 17 17" width="17" xmlns="http://www.w3.org/2000/svg">
    <path
        d="M8.16244 1.70064C8.39489 1.45656 8.77178 1.45656 9.00423 1.70064L15.9005 8.94175C16.133 9.18583 16.5099 9.18583 16.7423 8.94175C16.9748 8.69768 16.9748 8.30195 16.7423 8.05787L9.84602 0.816753C9.14866 0.084519 8.01801 0.0845208 7.32064 0.816753L0.424341 8.05787C0.191886 8.30195 0.191886 8.69768 0.424341 8.94175C0.656796 9.18583 1.03368 9.18583 1.26613 8.94175L8.16244 1.70064Z"
        fill="#A0A0A0" />
    <path
        d="M8.58333 3.02646L15.0587 9.82564C15.0823 9.8504 15.1064 9.87433 15.131 9.89742V15.0623C15.131 15.9253 14.4647 16.6248 13.6429 16.6248H10.9643C10.6355 16.6248 10.369 16.345 10.369 15.9998V12.2498C10.369 11.9046 10.1026 11.6248 9.77381 11.6248H7.39286C7.06412 11.6248 6.79762 11.9046 6.79762 12.2498V15.9998C6.79762 16.345 6.53112 16.6248 6.20238 16.6248H3.52381C2.70196 16.6248 2.03571 15.9253 2.03571 15.0623V9.89742C2.06026 9.87433 2.08434 9.8504 2.10793 9.82564L8.58333 3.02646Z"
        fill="#A0A0A0" />
</svg>
