<svg fill="none" height="63" viewBox="0 0 64 63" width="64" xmlns="http://www.w3.org/2000/svg">
    <g clip-path="url(#clip0_1094_217)">
        <g clip-path="url(#clip1_1094_217)">
            <path
                d="M49.8131 35.0038L44.5314 41.6317V56.1303C44.5314 57.0623 44.3243 57.2695 43.3922 57.2695H6.31725C5.38519 57.2695 5.17807 57.0623 5.17807 55.9232V19.0553C5.17807 18.6411 5.48876 18.3304 5.903 18.3304H13.8772C16.4663 18.3304 18.2268 16.4663 18.2268 13.9808V5.903C18.2268 5.48876 18.5375 5.17807 19.0553 5.17807H43.0816C44.4279 5.17807 44.5314 5.28163 44.5314 6.62793V19.0553L49.8131 12.4274V6.42081C49.8131 2.79616 47.0169 0 43.4958 0H16.2591C14.9128 0 13.6701 0.414246 12.6345 1.44986C8.80272 5.28163 4.97095 9.00984 1.13918 12.8416C0.310684 13.5665 0 14.4986 0 15.5342V55.8196C0 59.6514 2.6926 62.344 6.62793 62.344H43.0816C47.224 62.344 49.8131 59.6514 49.8131 55.5089V35.0038Z"
                fill="#A0A0A0" />
            <path
                d="M28.8937 46.8096L28.0652 50.1235V50.4342C28.0652 50.7449 28.3759 51.0556 28.6866 50.8485L28.9972 50.7449L32.0005 49.1915C31.4827 48.7772 30.9649 48.363 30.4471 47.8452C29.9293 47.3274 29.4115 47.2238 28.8937 46.8096Z"
                fill="#A0A0A0" />
            <path
                d="M37.6964 45.4635L35.0038 43.2887L59.5478 12.3239L59.4443 12.2203L59.3407 12.1167C59.3407 12.1167 59.2372 12.1167 59.2372 12.0132C58.9265 11.8061 58.5122 11.4954 58.098 11.0811L57.8909 10.9776L57.4766 10.6669C57.3731 10.5633 57.2695 10.5633 57.1659 10.4598L56.9588 10.2526L56.8553 10.1491L56.7517 10.0455C56.3374 9.73483 56.0268 9.52771 55.8196 9.21703L55.6125 9.0099C55.6125 9.0099 55.509 9.0099 55.509 8.90634C55.509 8.90634 55.4054 8.90634 55.4054 8.80278L55.3018 8.69922L30.4471 39.9748V40.0783L29.2043 45.1529L31.3791 46.7063C32.1041 47.3276 32.829 47.8454 33.4504 48.4668L38.1106 46.1885H38.2142L63.0689 15.12L62.344 14.4987L37.6964 45.4635Z"
                fill="#A0A0A0" />
            <path
                d="M61.8263 8.59573C59.7551 6.93874 57.166 6.73162 56.0269 8.18148L63.4833 14.188C64.6225 12.7382 63.794 10.2527 61.8263 8.59573Z"
                fill="#A0A0A0" />
        </g>
    </g>
    <defs>
        <clipPath id="clip0_1094_217">
            <rect fill="#A0A0A0" height="62.344" width="64" />
        </clipPath>
        <clipPath id="clip1_1094_217">
            <rect fill="#A0A0A0" height="62.344" width="64" />
        </clipPath>
    </defs>
</svg>
